<?xml version="1.0" encoding="UTF-8"?>
<!DOCTYPE svg PUBLIC "-//W3C//DTD SVG 1.1//EN" "http://www.w3.org/Graphics/SVG/1.1/DTD/svg11.dtd">
<svg xmlns="http://www.w3.org/2000/svg" version="1.1" width="512px" height="512px" style="shape-rendering:geometricPrecision; text-rendering:geometricPrecision; image-rendering:optimizeQuality; fill-rule:evenodd; clip-rule:evenodd" xmlns:xlink="http://www.w3.org/1999/xlink">
<g><path style="opacity:0.964" fill="#000000" d="M 249.5,0.5 C 256.088,-0.624007 261.755,1.04266 266.5,5.5C 275.899,23.1312 284.899,40.9646 293.5,59C 312.784,62.2788 332.118,65.2788 351.5,68C 362.745,73.0676 365.579,81.2343 360,92.5C 345.959,106.708 331.793,120.708 317.5,134.5C 321.152,153.596 324.485,172.762 327.5,192C 325.189,205.292 317.523,209.959 304.5,206C 287.675,197.421 271.008,188.588 254.5,179.5C 237.992,188.588 221.325,197.421 204.5,206C 195.102,209.539 187.935,207.039 183,198.5C 182.131,196.419 181.631,194.253 181.5,192C 184.515,172.762 187.848,153.596 191.5,134.5C 177.207,120.708 163.041,106.708 149,92.5C 144.245,82.9899 146.078,75.1566 154.5,69C 174.809,65.5747 195.143,62.2413 215.5,59C 223.856,41.7872 232.356,24.6205 241,7.5C 243.439,4.54918 246.272,2.21585 249.5,0.5 Z M 253.5,51.5 C 254.376,51.3691 255.043,51.7025 255.5,52.5C 260.096,61.7902 264.596,71.1235 269,80.5C 271.455,85.1492 275.288,87.9826 280.5,89C 291.53,90.4805 302.53,92.1471 313.5,94C 305,102.5 296.5,111 288,119.5C 285.78,123.595 285.113,127.928 286,132.5C 287.99,143.068 289.49,153.401 290.5,163.5C 280.833,158.333 271.167,153.167 261.5,148C 256.833,146 252.167,146 247.5,148C 237.633,153.6 227.633,158.6 217.5,163C 220.473,150.327 222.307,137.493 223,124.5C 222.529,122.754 221.862,121.087 221,119.5C 212.5,111 204,102.5 195.5,94C 206.47,92.1471 217.47,90.4805 228.5,89C 233.712,87.9826 237.545,85.1492 240,80.5C 244.602,70.8513 249.102,61.1847 253.5,51.5 Z"/></g>
<g><path style="opacity:0.983" fill="#000000" d="M 503.5,511.5 C 337.5,511.5 171.5,511.5 5.5,511.5C 3.16667,509.833 1.16667,507.833 -0.5,505.5C -0.5,449.833 -0.5,394.167 -0.5,338.5C 5.64242,318.192 18.9758,305.025 39.5,299C 68.4597,297.374 97.4597,297.041 126.5,298C 131.773,298.591 136.773,300.091 141.5,302.5C 141.775,272.76 155.775,252.926 183.5,243C 229.454,241.354 275.454,241.02 321.5,242C 346.307,248.474 361.14,264.307 366,289.5C 366.167,307.176 366.667,324.843 367.5,342.5C 372.637,340.288 377.97,338.788 383.5,338C 410.167,337.333 436.833,337.333 463.5,338C 488.801,342.635 504.301,357.469 510,382.5C 510.667,422.833 510.667,463.167 510,503.5C 508.521,506.828 506.355,509.494 503.5,511.5 Z M 198.5,271.5 C 235.835,271.333 273.168,271.5 310.5,272C 323.953,273.119 332.12,280.285 335,293.5C 335.5,356.499 335.667,419.499 335.5,482.5C 281.5,482.5 227.5,482.5 173.5,482.5C 173.333,419.499 173.5,356.499 174,293.5C 177.049,280.276 185.216,272.943 198.5,271.5 Z M 48.5,328.5 C 73.5022,328.333 98.5022,328.5 123.5,329C 133,331.833 139.167,338 142,347.5C 142.5,392.499 142.667,437.499 142.5,482.5C 104.5,482.5 66.5,482.5 28.5,482.5C 28.3333,439.499 28.5,396.499 29,353.5C 30.1749,340.844 36.6749,332.511 48.5,328.5 Z M 386.5,368.5 C 411.169,368.333 435.836,368.5 460.5,369C 472.595,372.757 479.095,380.924 480,393.5C 480.5,423.165 480.667,452.831 480.5,482.5C 442.5,482.5 404.5,482.5 366.5,482.5C 366.333,451.165 366.5,419.832 367,388.5C 369.682,377.986 376.182,371.319 386.5,368.5 Z"/></g>
</svg>
