<?xml version="1.0" encoding="UTF-8"?>
<!DOCTYPE svg PUBLIC "-//W3C//DTD SVG 1.1//EN" "http://www.w3.org/Graphics/SVG/1.1/DTD/svg11.dtd">
<svg xmlns="http://www.w3.org/2000/svg" version="1.1" width="512px" height="512px" style="shape-rendering:geometricPrecision; text-rendering:geometricPrecision; image-rendering:optimizeQuality; fill-rule:evenodd; clip-rule:evenodd" xmlns:xlink="http://www.w3.org/1999/xlink">
<g><path style="opacity:0.963" fill="#000000" d="M 4.5,-0.5 C 129.833,-0.5 255.167,-0.5 380.5,-0.5C 382.134,0.971672 383.634,2.63834 385,4.5C 385.333,80.1667 385.667,155.833 386,231.5C 405,201.833 424,172.167 443,142.5C 455.579,128.644 470.745,124.81 488.5,131C 500.334,136.327 508.001,145.16 511.5,157.5C 511.5,163.5 511.5,169.5 511.5,175.5C 509.661,180.186 507.494,184.853 505,189.5C 465.084,250.997 425.417,312.663 386,374.5C 385.667,418.5 385.333,462.5 385,506.5C 383.634,508.362 382.134,510.028 380.5,511.5C 255.167,511.5 129.833,511.5 4.5,511.5C 2.83333,509.833 1.16667,508.167 -0.5,506.5C -0.5,489.167 -0.5,471.833 -0.5,454.5C 4.91068,447.462 11.0773,446.795 18,452.5C 18.9734,454.392 19.6401,456.392 20,458.5C 20.4998,469.495 20.6665,480.495 20.5,491.5C 135.167,491.5 249.833,491.5 364.5,491.5C 364.667,462.498 364.5,433.498 364,404.5C 343.763,419.369 323.263,433.869 302.5,448C 296.318,449.275 291.818,447.108 289,441.5C 288.892,434.507 289.059,427.507 289.5,420.5C 284.807,420.898 280.474,422.398 276.5,425C 269.317,430.842 263.65,437.842 259.5,446C 250.206,450.681 244.206,448.015 241.5,438C 242.909,424.49 242.742,410.99 241,397.5C 239.938,394.936 238.104,393.269 235.5,392.5C 218.989,400.021 205.156,411.021 194,425.5C 189.127,432.076 184.627,438.91 180.5,446C 171.055,450.943 165.055,448.276 162.5,438C 174.056,412.767 191.723,392.767 215.5,378C 227.765,369.943 240.098,369.61 252.5,377C 260.364,385.911 264.197,396.411 264,408.5C 272.975,401.23 283.142,398.563 294.5,400.5C 298.098,386.686 301.265,372.686 304,358.5C 324.249,327.67 344.249,296.67 364,265.5C 364.5,183.501 364.667,101.501 364.5,19.5C 249.833,19.5 135.167,19.5 20.5,19.5C 20.6667,136.834 20.5,254.167 20,371.5C 18.5733,379.8 13.7399,382.966 5.5,381C 2.97739,379.64 0.977392,377.807 -0.5,375.5C -0.5,251.833 -0.5,128.167 -0.5,4.5C 1.16667,2.83333 2.83333,1.16667 4.5,-0.5 Z M 86.5,66.5 C 116.5,66.5 146.5,66.5 176.5,66.5C 176.667,89.8357 176.5,113.169 176,136.5C 171.363,132.764 166.196,129.93 160.5,128C 165.678,118.707 166.845,108.874 164,98.5C 155.666,80.0824 141.499,72.9157 121.5,77C 102.012,85.1382 94.5124,99.6382 99,120.5C 99.7648,123.196 100.932,125.696 102.5,128C 96.8794,130.088 91.7127,132.922 87,136.5C 86.5,113.169 86.3334,89.8357 86.5,66.5 Z M 129.5,96.5 C 138.696,96.4199 143.696,100.92 144.5,110C 142.116,121.525 135.449,125.191 124.5,121C 115.393,110.571 117.059,102.404 129.5,96.5 Z M 121.5,144.5 C 135.656,142.832 148.989,145.332 161.5,152C 169.032,156.902 173.698,163.736 175.5,172.5C 146.159,172.833 116.826,172.5 87.5,171.5C 90.8715,159.962 98.2048,152.128 109.5,148C 113.623,146.808 117.623,145.641 121.5,144.5 Z M 468.5,149.5 C 484.808,148.641 491.975,156.308 490,172.5C 488.999,175.173 487.499,177.507 485.5,179.5C 475.699,173.531 466.033,167.364 456.5,161C 459.103,155.56 463.103,151.727 468.5,149.5 Z M 444.5,178.5 C 453.805,184.489 463.138,190.489 472.5,196.5C 473.583,197.365 473.749,198.365 473,199.5C 434.333,259.5 395.667,319.5 357,379.5C 347.414,373.291 337.914,366.957 328.5,360.5C 367.188,299.777 405.855,239.11 444.5,178.5 Z M 88.5,240.5 C 161.5,240.5 234.5,240.5 307.5,240.5C 307.5,249.833 307.5,259.167 307.5,268.5C 234.5,268.5 161.5,268.5 88.5,268.5C 88.5,259.167 88.5,249.833 88.5,240.5 Z M 320.5,381.5 C 327.487,385.328 334.154,389.661 340.5,394.5C 332.306,401.187 323.806,407.52 315,413.5C 316.623,402.875 318.456,392.208 320.5,381.5 Z"/></g>
<g><path style="opacity:0.954" fill="#000000" d="M 75.5,45.5 C 113.168,45.3333 150.835,45.5 188.5,46C 191.738,46.232 194.238,47.732 196,50.5C 197.656,95.7498 197.989,141.083 197,186.5C 195.612,189.945 193.112,192.111 189.5,193C 150.833,193.667 112.167,193.667 73.5,193C 70.804,192.31 68.6374,190.81 67,188.5C 65.3439,143.25 65.0106,97.9169 66,52.5C 68.0863,48.5547 71.253,46.2213 75.5,45.5 Z M 86.5,66.5 C 86.3334,89.8357 86.5,113.169 87,136.5C 91.7127,132.922 96.8794,130.088 102.5,128C 100.932,125.696 99.7648,123.196 99,120.5C 94.5124,99.6382 102.012,85.1382 121.5,77C 141.499,72.9157 155.666,80.0824 164,98.5C 166.845,108.874 165.678,118.707 160.5,128C 166.196,129.93 171.363,132.764 176,136.5C 176.5,113.169 176.667,89.8357 176.5,66.5C 146.5,66.5 116.5,66.5 86.5,66.5 Z M 129.5,96.5 C 117.059,102.404 115.393,110.571 124.5,121C 135.449,125.191 142.116,121.525 144.5,110C 143.696,100.92 138.696,96.4199 129.5,96.5 Z M 121.5,144.5 C 117.623,145.641 113.623,146.808 109.5,148C 98.2048,152.128 90.8715,159.962 87.5,171.5C 116.826,172.5 146.159,172.833 175.5,172.5C 173.698,163.736 169.032,156.902 161.5,152C 148.989,145.332 135.656,142.832 121.5,144.5 Z"/></g>
<g><path style="opacity:0.941" fill="#000000" d="M 242.5,65.5 C 268.169,65.3334 293.835,65.5 319.5,66C 328.236,69.3166 330.403,75.1499 326,83.5C 324.745,84.2106 323.579,85.044 322.5,86C 295.167,86.6667 267.833,86.6667 240.5,86C 233.776,81.9366 232.276,76.4366 236,69.5C 238.013,67.7518 240.18,66.4185 242.5,65.5 Z"/></g>
<g><path style="opacity:0.941" fill="#000000" d="M 241.5,109.5 C 267.835,109.333 294.169,109.5 320.5,110C 327.494,113.154 329.661,118.321 327,125.5C 325.773,127.726 323.939,129.226 321.5,130C 294.5,130.667 267.5,130.667 240.5,130C 233.776,125.937 232.276,120.437 236,113.5C 237.812,112.023 239.645,110.69 241.5,109.5 Z"/></g>
<g><path style="opacity:0.941" fill="#000000" d="M 241.5,153.5 C 267.835,153.333 294.169,153.5 320.5,154C 327.494,157.154 329.661,162.321 327,169.5C 325.773,171.726 323.939,173.226 321.5,174C 294.5,174.667 267.5,174.667 240.5,174C 233.776,169.937 232.276,164.437 236,157.5C 237.812,156.023 239.645,154.69 241.5,153.5 Z"/></g>
<g><path style="opacity:0.952" fill="#000000" d="M 73.5,219.5 C 156.167,219.333 238.834,219.5 321.5,220C 324.756,221.587 326.923,224.087 328,227.5C 328.667,245.5 328.667,263.5 328,281.5C 326.923,284.913 324.756,287.413 321.5,289C 239.167,289.667 156.833,289.667 74.5,289C 71,288.167 68.8333,286 68,282.5C 67.3333,263.5 67.3333,244.5 68,225.5C 69.3597,222.977 71.193,220.977 73.5,219.5 Z M 88.5,240.5 C 88.5,249.833 88.5,259.167 88.5,268.5C 161.5,268.5 234.5,268.5 307.5,268.5C 307.5,259.167 307.5,249.833 307.5,240.5C 234.5,240.5 161.5,240.5 88.5,240.5 Z"/></g>
<g><path style="opacity:0.946" fill="#000000" d="M 79.5,317.5 C 126.835,317.333 174.168,317.5 221.5,318C 229.494,321.025 231.661,326.525 228,334.5C 226.786,336.049 225.286,337.215 223.5,338C 174.833,338.667 126.167,338.667 77.5,338C 70.7756,333.937 69.2756,328.437 73,321.5C 75.0129,319.752 77.1795,318.418 79.5,317.5 Z"/></g>
<g><path style="opacity:0.939" fill="#000000" d="M 78.5,359.5 C 101.836,359.333 125.169,359.5 148.5,360C 155.711,362.248 158.211,367.082 156,374.5C 154.833,377 153,378.833 150.5,380C 126.167,380.667 101.833,380.667 77.5,380C 70.7756,375.937 69.2756,370.437 73,363.5C 74.8121,362.023 76.6455,360.69 78.5,359.5 Z"/></g>
<g><path style="opacity:0.903" fill="#000000" d="M -0.5,420.5 C -0.5,417.167 -0.5,413.833 -0.5,410.5C 3.34233,405.754 8.34233,404.254 14.5,406C 19.2745,409.655 20.7745,414.488 19,420.5C 15.3449,425.275 10.5116,426.775 4.5,425C 2.63834,423.634 0.971672,422.134 -0.5,420.5 Z"/></g>
</svg>
