<?xml version="1.0" encoding="UTF-8"?>
<!DOCTYPE svg PUBLIC "-//W3C//DTD SVG 1.1//EN" "http://www.w3.org/Graphics/SVG/1.1/DTD/svg11.dtd">
<svg xmlns="http://www.w3.org/2000/svg" version="1.1" width="512px" height="512px" style="shape-rendering:geometricPrecision; text-rendering:geometricPrecision; image-rendering:optimizeQuality; fill-rule:evenodd; clip-rule:evenodd" xmlns:xlink="http://www.w3.org/1999/xlink">
<g><path style="opacity:0.927" fill="#000000" d="M 451.5,-0.5 C 456.833,-0.5 462.167,-0.5 467.5,-0.5C 484.132,5.65963 491.632,17.6596 490,35.5C 484.273,55.5462 471.107,63.7128 450.5,60C 447.221,59.0272 444.221,57.5272 441.5,55.5C 411.356,79.1431 381.356,102.976 351.5,127C 358.36,147.614 351.693,161.947 331.5,170C 322.084,171.697 313.25,170.197 305,165.5C 274.583,188.256 245.083,212.09 216.5,237C 221.522,253.608 216.855,266.608 202.5,276C 183.72,283.518 169.22,278.685 159,261.5C 156.736,255.338 156.07,249.004 157,242.5C 158.043,238.725 159.043,235.058 160,231.5C 128.803,199.971 97.9699,168.137 67.5,136C 51.4754,142.703 37.6421,139.537 26,126.5C 16.5356,109.209 19.369,94.3755 34.5,82C 55.0321,72.5005 70.5321,77.6671 81,97.5C 83.5934,106.707 82.7601,115.541 78.5,124C 109.137,156.304 140.137,188.304 171.5,220C 174.847,219.783 178.18,219.116 181.5,218C 190.477,216.454 198.643,218.287 206,223.5C 235.15,199.593 264.484,175.927 294,152.5C 289.539,137.176 293.372,124.343 305.5,114C 317.523,106.508 329.356,106.675 341,114.5C 371.183,90.6383 401.017,66.4716 430.5,42C 425.147,21.5393 432.147,7.37268 451.5,-0.5 Z M 454.5,15.5 C 467.98,14.1514 474.48,20.1514 474,33.5C 469.133,44.6771 461.3,47.5105 450.5,42C 444.028,36.0957 442.861,29.2623 447,21.5C 449.114,18.8792 451.614,16.8792 454.5,15.5 Z M 47.5,93.5 C 63.7342,93.5587 69.2342,101.225 64,116.5C 55.6667,125.833 47.3333,125.833 39,116.5C 34.5708,106.042 37.4041,98.3751 47.5,93.5 Z M 321.5,124.5 C 335.109,125.936 340.275,133.269 337,146.5C 331.199,154.873 323.699,156.707 314.5,152C 306.207,143.335 306.541,135.002 315.5,127C 317.611,126.155 319.611,125.322 321.5,124.5 Z M 184.5,233.5 C 198.976,234.121 204.476,241.455 201,255.5C 190.369,266.921 181.036,265.921 173,252.5C 171.751,242.985 175.584,236.652 184.5,233.5 Z"/></g>
<g><path style="opacity:0.96" fill="#000000" d="M 511.5,148.5 C 511.5,261.5 511.5,374.5 511.5,487.5C 509.735,493.022 506.902,498.022 503,502.5C 498.4,506.626 493.234,509.626 487.5,511.5C 468.833,511.5 450.167,511.5 431.5,511.5C 417.554,507.378 409.387,498.045 407,483.5C 406.012,371.47 406.346,259.47 408,147.5C 411.745,137.421 418.578,130.254 428.5,126C 438.778,124.883 449.111,124.383 459.5,124.5C 468.5,124.667 477.5,124.833 486.5,125C 498.92,128.589 507.253,136.423 511.5,148.5 Z M 435.5,140.5 C 451.503,140.333 467.503,140.5 483.5,141C 491.442,143.612 495.608,149.112 496,157.5C 496.667,264.833 496.667,372.167 496,479.5C 494.861,489.305 489.361,494.805 479.5,496C 464.454,496.915 449.454,496.582 434.5,495C 427.99,492.833 424.157,488.333 423,481.5C 422.333,372.5 422.333,263.5 423,154.5C 424.926,147.745 429.093,143.078 435.5,140.5 Z"/></g>
<g><path style="opacity:0.955" fill="#000000" d="M 79.5,511.5 C 60.8333,511.5 42.1667,511.5 23.5,511.5C 17.9779,509.735 12.9779,506.902 8.5,503C 4.37379,498.4 1.37379,493.234 -0.5,487.5C -0.5,473.167 -0.5,458.833 -0.5,444.5C 4.33731,439.232 9.17064,439.232 14,444.5C 14.3333,456.167 14.6667,467.833 15,479.5C 16.1946,489.361 21.6946,494.861 31.5,496C 44.8333,496.667 58.1667,496.667 71.5,496C 80.7571,495.408 86.2571,490.575 88,481.5C 88.1667,438.333 88.3333,395.167 88.5,352C 88.6591,307.776 88.1591,263.609 87,219.5C 84.7437,214.243 80.9104,210.743 75.5,209C 59.8333,208.333 44.1667,208.333 28.5,209C 19.9606,211.205 15.4606,216.705 15,225.5C 14.6667,286.5 14.3333,347.5 14,408.5C 9.17064,413.768 4.33731,413.768 -0.5,408.5C -0.5,344.5 -0.5,280.5 -0.5,216.5C 3.97398,203.529 12.974,195.696 26.5,193C 43.5,192.333 60.5,192.333 77.5,193C 90.4849,195.986 98.9849,203.819 103,216.5C 104.654,305.465 104.987,394.465 104,483.5C 101.613,498.045 93.4459,507.378 79.5,511.5 Z"/></g>
<g><path style="opacity:0.937" fill="#000000" d="M 351.5,511.5 C 332.833,511.5 314.167,511.5 295.5,511.5C 281.274,507.096 273.107,497.429 271,482.5C 270.333,405.5 270.333,328.5 271,251.5C 273.374,234.793 282.874,224.959 299.5,222C 315.5,221.333 331.5,221.333 347.5,222C 361.589,224.09 370.756,231.924 375,245.5C 377.075,255.923 376.908,266.256 374.5,276.5C 369.672,280.702 365.172,280.368 361,275.5C 360.847,266.45 360.18,257.45 359,248.5C 357.167,244 354,240.833 349.5,239C 333.22,237.394 316.887,237.061 300.5,238C 294.499,239.336 290.332,242.836 288,248.5C 286.345,326.123 286.012,403.789 287,481.5C 288.743,490.575 294.243,495.408 303.5,496C 316.833,496.667 330.167,496.667 343.5,496C 353.203,495.297 358.703,490.13 360,480.5C 360.333,424.5 360.667,368.5 361,312.5C 367.445,306.589 372.445,307.589 376,315.5C 376.667,370.833 376.667,426.167 376,481.5C 374.185,496.846 366.019,506.846 351.5,511.5 Z"/></g>
<g><path style="opacity:0.939" fill="#000000" d="M 215.5,511.5 C 196.833,511.5 178.167,511.5 159.5,511.5C 144.981,506.846 136.815,496.846 135,481.5C 134.333,434.833 134.333,388.167 135,341.5C 136.684,325.148 145.517,314.981 161.5,311C 178.833,310.333 196.167,310.333 213.5,311C 229.018,314.85 237.851,324.684 240,340.5C 240.667,387.833 240.667,435.167 240,482.5C 237.893,497.429 229.726,507.096 215.5,511.5 Z M 163.5,326.5 C 179.503,326.333 195.503,326.5 211.5,327C 216.91,328.743 220.744,332.243 223,337.5C 224.647,385.454 224.981,433.454 224,481.5C 222.843,488.333 219.01,492.833 212.5,495C 197.546,496.582 182.546,496.915 167.5,496C 159.825,495.424 154.658,491.591 152,484.5C 150.353,436.879 150.02,389.212 151,341.5C 152.51,334.166 156.677,329.166 163.5,326.5 Z"/></g>
</svg>
